<svg version="1.1" id="Layer_1" xmlns="http://www.w3.org/2000/svg" x="0" y="0" width="128" height="36" viewBox="0 0 128 36" xml:space="preserve"><style>.st0{fill:#474747}.st1{fill:#ef8312}</style><g id="Group_109" transform="translate(-10531 121)"><path id="Path_105" class="st0" d="M10595.37-98.24c0 2.02-.29 2.56-1.4 2.56-1.12 0-1.44-.58-1.44-2.56v-9.28c0-2.14.33-2.72 1.44-2.72 1.11 0 1.4.54 1.4 2.72v9.28zm0-22.76v9.93a3.059 3.059 0 00-2.92-1.57c-1.36 0-2.43.49-2.84 1.36-.41.74-.53 1.77-.53 3.88v8.33c.08 3.34.08 3.34.33 4.08.33 1.03 1.48 1.69 2.92 1.69 1.48 0 2.31-.49 3.3-1.98v1.77h3.22V-121h-3.48zm-19.08 27.5h3.46v-14.1c0-2.02.37-2.64 1.52-2.64 1.11 0 1.4.54 1.4 2.72v14.02h3.46v-14.02c0-4.08-.62-5.11-3.09-5.11-1.52 0-2.23.41-3.5 2.06v-1.85h-3.25v18.92zm-6.68-4.7c.04.58-.01 1.17-.17 1.73-.26.52-.82.83-1.4.79-1.24 0-1.4-.41-1.4-3.71 0-3.01.41-3.5 2.97-3.55v4.74zm-6.11-8.74h3.42v-.37c-.01-.62.02-1.24.08-1.85.1-.62.64-1.08 1.28-1.07 1.03 0 1.32.58 1.32 2.84v2.1h-.66c-5.07.16-5.73.86-5.73 6.18 0 2.31.08 3.3.29 4 .33 1.15 1.44 1.81 2.92 1.81 1.57 0 2.39-.49 3.38-1.98v1.77h3.25v-13.76c0-4.08-1.07-5.36-4.54-5.36-2.14 0-3.67.49-4.37 1.44-.49.66-.7 1.65-.66 3.22l.02 1.03zm-12.9 13.44h3.46v-14.14c0-2.02.29-2.59 1.4-2.59s1.36.54 1.36 2.68v14.06h3.46v-13.94c0-1.81-.12-2.89-.41-3.63-.37-.99-1.44-1.57-2.84-1.57-1.12-.04-2.21.41-2.97 1.24v-9.6h-3.46v27.49zm-6.68 0h3.46V-121h-3.46v27.5zm-9.36-10.89v-2.59c-.03-.7.02-1.41.13-2.1.07-.69.67-1.2 1.36-1.15.65-.08 1.24.39 1.31 1.04 0 .02 0 .05.01.07.11.71.15 1.43.13 2.14v2.59h-2.94zm2.93 4.66v1.36c0 2.02-.37 2.68-1.52 2.68-1.11 0-1.4-.58-1.4-2.68V-102h6.39v-4.41c0-4.95-.95-6.22-4.7-6.22-2.06 0-3.34.41-4.12 1.36-.79.95-1.03 2.06-1.03 4.7v8.12c0 3.83 1.28 5.15 4.99 5.15 3.46 0 4.87-1.48 4.87-5.07v-1.36h-3.48z"/><path id="Path_106" class="st0" d="M10598.82-89.8h-1.3l-.82 1.7-.83-1.7h-1.3l1.57 2.64v1.59h1.13v-1.59l1.55-2.64zm-6.35 1.27c0 .48-.46.49-.83.49h-.3V-89h.3c.43 0 .83.08.83.47zm1.33 2.96l-.41-1.15c-.21-.52-.24-.84-.6-.93v-.01c.51-.09.86-.55.81-1.07 0-.73-.61-1.07-1.36-1.07h-2.01v4.23h1.13v-1.68h.24c.42 0 .57.18.8.91l.24.76h1.16zm-5.96-2.11c0 .7-.27 1.35-.96 1.35s-.96-.65-.96-1.35c0-.74.28-1.35.96-1.35s.96.61.96 1.35zm1.17 0c0-1.36-.73-2.19-2.12-2.19s-2.12.83-2.12 2.19c0 1.35.74 2.19 2.12 2.19s2.12-.85 2.12-2.19zm-5.18-1.28v-.84h-3.22v.84h1.04v3.4h1.13v-3.4h1.05zm-5.77 1.69h-1.06l.54-1.65h.01l.51 1.65zm1.82 1.7l-1.63-4.23h-1.39l-1.6 4.23h1.15l.34-.9h1.59l.31.9h1.23zm-5.65 0v-4.23h-1.71l-.94 2.81h-.01l-.9-2.81h-1.78v4.23h1.1l-.02-3.25h.01l1.03 3.25h1.04l1.08-3.25h.01l-.02 3.25h1.11zm-7.75-2.96c0 .48-.46.49-.83.49h-.3V-89h.3c.44 0 .83.08.83.47zm1.33 2.96l-.41-1.15c-.21-.52-.24-.84-.6-.93v-.01c.51-.09.86-.55.81-1.07 0-.73-.61-1.07-1.36-1.07h-2.01v4.23h1.13v-1.68h.24c.42 0 .57.18.8.91l.24.76h1.16zm-5.96-2.11c0 .7-.27 1.35-.96 1.35s-.96-.65-.96-1.35c0-.74.28-1.35.96-1.35s.96.61.96 1.35zm1.16 0c0-1.36-.73-2.19-2.12-2.19-1.4 0-2.12.83-2.12 2.19 0 1.35.74 2.19 2.12 2.19s2.12-.85 2.12-2.19zm-5.27-1.32v-.8h-2.83v4.23h1.13v-1.7h1.63v-.8h-1.63V-89h1.7zm-4.08 2.11c0-1.53-2-1.07-2-1.75 0-.37.47-.4.76-.4.32 0 .64.06.94.19l.07-.87c-.35-.11-.72-.16-1.09-.16-.85 0-1.84.28-1.84 1.3 0 1.54 2 1.04 2 1.83 0 .34-.34.41-.7.41-.41 0-.81-.09-1.17-.28l-.1.93c.41.12.84.18 1.26.18.95.02 1.87-.28 1.87-1.38zm-4.45 1.32v-4.23h-1.03l.02 2.87h-.01l-1.43-2.87h-1.44v4.23h1.04l-.04-2.89h.01l1.48 2.89h1.4zm-6.79-1.7h-1.06l.54-1.65h.01l.51 1.65zm1.82 1.7l-1.63-4.23h-1.39l-1.6 4.23h1.15l.34-.9h1.59l.31.9h1.23zm-6.72-2.96c0 .48-.46.49-.82.49h-.3V-89h.3c.43 0 .82.08.82.47zm1.33 2.96l-.41-1.15c-.21-.52-.24-.84-.6-.93v-.01c.51-.09.86-.55.81-1.07 0-.73-.61-1.07-1.36-1.07h-2.02v4.23h1.13v-1.68h.24c.42 0 .57.18.8.91l.24.76h1.17zm-4.63-3.39v-.84h-3.22v.84h1.04v3.4h1.13v-3.4h1.05z"/><path id="Path_107" class="st1" d="M10628.96-94.76c-.01.73-.61 1.31-1.33 1.3h-24.34c-.72.02-1.32-.55-1.34-1.26-.02-.72.55-1.32 1.27-1.34H10627.64c.71-.01 1.31.57 1.32 1.3"/><path id="Path_108" class="st1" d="M10628.96-98.9c-.01.73-.61 1.31-1.34 1.3h-24.34c-.72.02-1.32-.55-1.34-1.26-.02-.72.55-1.32 1.27-1.34H10627.63c.72-.01 1.32.57 1.33 1.3"/><path id="Path_109" class="st1" d="M10628.96-103.05c-.01.73-.61 1.31-1.34 1.3h-24.34c-.72.02-1.32-.55-1.34-1.26-.02-.72.55-1.32 1.27-1.34H10627.63c.72-.01 1.32.57 1.33 1.3"/><path id="Path_110" class="st1" d="M10628.96-107.2c-.01.73-.61 1.31-1.33 1.3h-24.34c-.72.02-1.32-.55-1.34-1.26-.02-.72.55-1.32 1.27-1.34H10627.64c.71-.01 1.31.58 1.32 1.3"/><path id="Path_111" class="st1" d="M10628.96-111.34c-.01.73-.61 1.31-1.34 1.3h-24.34c-.72.02-1.32-.55-1.34-1.26-.02-.72.55-1.32 1.27-1.34H10627.63c.72-.01 1.32.57 1.33 1.3"/><path id="Path_112" class="st1" d="M10628.96-115.49c-.01.73-.61 1.31-1.34 1.3h-24.34c-.72.02-1.32-.55-1.34-1.26-.02-.72.55-1.32 1.27-1.34H10627.63c.72-.01 1.32.57 1.33 1.3"/><path id="Path_113" class="st1" d="M10628.96-119.64c-.01.73-.61 1.31-1.34 1.3h-24.34c-.73.01-1.32-.58-1.34-1.3.01-.73.61-1.31 1.34-1.3h24.34c.73-.01 1.33.58 1.34 1.3"/><path id="Path_114" class="st0" d="M10659-94.76c-.01.73-.61 1.31-1.34 1.3h-24.34c-.72.02-1.32-.55-1.34-1.26-.02-.72.54-1.32 1.26-1.34H10657.66c.73-.01 1.33.57 1.34 1.3"/><path id="Path_115" class="st0" d="M10659-98.9c-.01.73-.61 1.31-1.34 1.3h-24.34c-.72.02-1.32-.55-1.34-1.26-.02-.72.54-1.32 1.26-1.34H10657.66c.73-.01 1.33.57 1.34 1.3"/><path id="Path_116" class="st0" d="M10659-103.05c-.01.73-.61 1.31-1.34 1.3h-24.34c-.72.02-1.32-.55-1.34-1.26-.02-.72.54-1.32 1.26-1.34H10657.66c.73-.01 1.33.57 1.34 1.3"/><path id="Path_117" class="st0" d="M10659-107.2c-.01.73-.61 1.31-1.34 1.3h-24.34c-.72.02-1.32-.55-1.34-1.26-.02-.72.54-1.32 1.26-1.34H10657.66c.73-.01 1.33.58 1.34 1.3"/><path id="Path_118" class="st0" d="M10659-111.34c-.01.73-.61 1.31-1.34 1.3h-24.34c-.72.02-1.32-.55-1.34-1.26s.54-1.32 1.26-1.34H10657.66c.73-.01 1.33.57 1.34 1.3"/><path id="Path_119" class="st0" d="M10659-115.49c-.01.73-.61 1.31-1.34 1.3h-24.34c-.72.02-1.32-.55-1.34-1.26s.54-1.32 1.26-1.34H10657.66c.73-.01 1.33.57 1.34 1.3"/><path id="Path_120" class="st0" d="M10659-119.64c-.01.73-.61 1.31-1.34 1.3h-24.34c-.73.01-1.32-.58-1.34-1.3.01-.73.61-1.31 1.34-1.3h24.34c.73-.01 1.33.58 1.34 1.3"/></g></svg>