<svg version="1.1" id="Layer_1" xmlns="http://www.w3.org/2000/svg" x="0" y="0" viewBox="0 0 32 32" xml:space="preserve"><style>.st0{fill:#f28300}</style><g id="Group_63" transform="translate(-594 -3908.568)"><path id="Path_86" class="st0" d="M609.2 3921.2c0 .7-.2 1.3-.7 1.8-.5.6-1.2.9-1.9 1.1v.1c1.9.2 2.8 1.1 2.8 2.7 0 1-.4 1.9-1.3 2.5-1 .7-2.3 1-3.5.9-.6 0-1.1 0-1.7-.1-.6-.1-1.2-.3-1.7-.5v-2.6l1.5.6c.5.1 1 .2 1.4.2.5 0 1-.1 1.5-.3.3-.2.5-.5.5-.9 0-.3-.1-.5-.2-.7-.2-.2-.5-.3-.8-.4-.5-.1-.9-.1-1.4-.1h-.7v-2.3h.7c1.6 0 2.3-.4 2.3-1.2 0-.3-.1-.5-.3-.7-.3-.2-.6-.2-.9-.2-.8 0-1.6.3-2.3.7l-1.3-2.1c.6-.4 1.2-.7 1.8-.9.7-.2 1.4-.3 2.2-.3 1-.1 1.9.2 2.8.7.9.5 1.2 1.2 1.2 2zm6.2 1.4c.6 0 1.2.1 1.8.5.5.3 1 .8 1.2 1.3.3.6.5 1.3.4 1.9.1 1.1-.3 2.2-1.2 2.9-.8.7-1.9 1-3.5 1-1.1 0-2.2-.2-3.2-.6v-2.5c.5.2 1 .4 1.5.5.5.1 1 .2 1.5.2s.9-.1 1.3-.4c.3-.3.5-.7.5-1.1 0-.4-.2-.8-.5-1-.4-.3-.9-.4-1.4-.4-.5 0-1.1.1-1.6.3l-1.1-.6.4-6h6.5v2.6h-3.9l-.1 1.5c.3-.1.6-.1.9-.1.2.1.3 0 .5 0z"/><g id="tick-inside-circle" transform="translate(594 3908.568)"><g id="check-circle-outline"><path id="Path_84" class="st0" d="M28.8 16c0 7.1-5.7 12.8-12.8 12.8S3.2 23.1 3.2 16 8.9 3.2 16 3.2c1.2 0 2.4.2 3.5.5l2.6-2.6C20.1.4 18.1 0 16 0 7.2 0 0 7.2 0 16s7.2 16 16 16 16-7.2 16-16h-3.2z"/></g></g></g></svg>