<?xml version="1.0" encoding="utf-8"?>
<!-- Generator: Adobe Illustrator 24.0.3, SVG Export Plug-In . SVG Version: 6.00 Build 0)  -->
<svg version="1.1" id="Layer_1" xmlns="http://www.w3.org/2000/svg" xmlns:xlink="http://www.w3.org/1999/xlink" x="0px" y="0px"
	 viewBox="0 0 32 32" style="enable-background:new 0 0 32 32;" xml:space="preserve">
<path id="Union_1" d="M8.08,32c-1.88,0-3.4-1.53-3.41-3.41v-1.53H4.35c-0.76,0-1.37-0.61-1.37-1.37c0,0,0,0,0,0v-8.32
	c0-0.76,0.61-1.37,1.37-1.38c0,0,0,0,0,0h0.33V3.41C4.68,1.53,6.2,0,8.08,0h12.85l8.09,8.06v20.53c0,1.88-1.52,3.4-3.4,3.41H8.08z
	 M6.77,28.59c0,0.73,0.59,1.32,1.32,1.32h17.54c0.73,0,1.32-0.59,1.32-1.32L26.89,8.89L22.52,8.9c-1.3,0-2.36-1.06-2.36-2.36V2.08
	L8.08,2.09c-0.73,0-1.32,0.59-1.32,1.32V16h16.35c0.76,0,1.37,0.61,1.37,1.37c0,0,0,0,0,0v8.32c0,0.76-0.61,1.37-1.37,1.37
	c0,0,0,0,0,0H6.77L6.77,28.59z M11.55,18.87v5.67c0.49,0.06,0.99,0.09,1.48,0.09c0.95,0.06,1.89-0.2,2.66-0.74
	c0.66-0.59,1.01-1.45,0.96-2.34c0.05-0.84-0.31-1.66-0.98-2.18c-0.7-0.47-1.53-0.68-2.36-0.62C12.73,18.75,12.14,18.79,11.55,18.87
	L11.55,18.87z M17.52,24.57h1.31v-2.32h2.07v-1.06h-2.07v-1.32h2.22V18.8h-3.53L17.52,24.57z M6.57,18.87v5.7h1.29v-2.06
	c0.15,0.02,0.3,0.03,0.45,0.02c0.68,0.04,1.35-0.17,1.88-0.61c0.36-0.36,0.55-0.86,0.53-1.37c0.01-0.52-0.22-1.01-0.62-1.34
	c-0.52-0.35-1.14-0.51-1.76-0.46C7.75,18.75,7.16,18.79,6.57,18.87L6.57,18.87z M13.32,23.61c-0.15,0.01-0.3,0-0.45-0.03v-3.78
	c0.19-0.04,0.39-0.06,0.59-0.05c0.91-0.09,1.72,0.57,1.82,1.48c0.01,0.12,0.01,0.24,0,0.36c0.13,0.98-0.55,1.88-1.53,2.01
	c-0.13,0.02-0.27,0.02-0.4,0.01H13.32z M7.87,21.5v-1.7c0.18-0.04,0.36-0.06,0.54-0.05c0.65,0,1.02,0.32,1.02,0.85
	c0,0.59-0.43,0.94-1.12,0.94C8.16,21.53,8.01,21.52,7.87,21.5L7.87,21.5z"/>
</svg>
