<svg xmlns="http://www.w3.org/2000/svg" viewBox="0 0 32 32"><path d="M16 0C7.2 0 0 7.2 0 16s7.2 16 16 16 16-7.2 16-16S24.8 0 16 0zm11 9.6h-4.6c-.5-2-1.3-3.9-2.2-5.8C23 5 25.6 6.9 27 9.6zM16 3.2c1.4 2 2.4 4.1 3 6.4h-6c.6-2.3 1.7-4.4 3-6.4zm-12.3 16c-.3-1-.5-2.1-.5-3.2s.2-2.2.5-3.2h5.4C9 13.9 8.9 14.9 9 16c0 1.1.2 2.1.2 3.2H3.7zM5 22.4h4.6c.5 2 1.3 3.9 2.2 5.8C9 27 6.4 25.1 5 22.4zM9.6 9.6H5c1.6-2.7 4-4.7 6.9-5.8-1 1.9-1.8 3.8-2.3 5.8zM16 28.8c-1.4-2-2.4-4.1-3-6.4h6c-.6 2.3-1.7 4.4-3 6.4zm3.7-9.6h-7.4c-.2-1.1-.3-2.1-.3-3.2s.1-2.1.3-3.2h7.5c.2 1.1.3 2.1.3 3.2.1 1.1-.3 2.1-.4 3.2zm.5 9c1-1.8 1.8-3.8 2.2-5.8H27c-1.4 2.7-4 4.6-6.8 5.8zm2.8-9c.1-1.1.2-2.1.2-3.2s-.2-2.1-.2-3.2h5.4c.3 1 .5 2.1.5 3.2s-.1 2.2-.5 3.2H23z" fill="#f28300"/></svg>